<?xml version="1.0" encoding="UTF-8" standalone="no"?>
<svg
   viewBox="0 0 512 512"
   style="height: 512px; width: 512px;"
   version="1.1"
   id="svg20"
   sodipodi:docname="dice-twenty-faces-one (1).svg"
   inkscape:version="1.2.1 (9c6d41e410, 2022-07-14)"
   xmlns:inkscape="http://www.inkscape.org/namespaces/inkscape"
   xmlns:sodipodi="http://sodipodi.sourceforge.net/DTD/sodipodi-0.dtd"
   xmlns="http://www.w3.org/2000/svg"
   xmlns:svg="http://www.w3.org/2000/svg">
  <defs
     id="defs24" />
  <sodipodi:namedview
     id="namedview22"
     pagecolor="#ffffff"
     bordercolor="#000000"
     borderopacity="0.25"
     inkscape:showpageshadow="2"
     inkscape:pageopacity="0.0"
     inkscape:pagecheckerboard="0"
     inkscape:deskcolor="#d1d1d1"
     showgrid="false"
     inkscape:zoom="1.1559539"
     inkscape:cx="243.95437"
     inkscape:cy="211.94618"
     inkscape:window-width="1920"
     inkscape:window-height="1017"
     inkscape:window-x="-8"
     inkscape:window-y="-8"
     inkscape:window-maximized="1"
     inkscape:current-layer="svg20" />
  <circle
     cx="256"
     cy="256"
     r="256"
     fill="#000000"
     fill-opacity="0.01"
     id="circle14"
     style="display:inline;image-rendering:auto" />
  <g
     id="g426"
     style="fill:#000000">
    <path
       d="M 248,20.3 72,132.6 248,128.8 Z m 16,0 v 108.5 l 175.7,3.8 z M 242,144.9 55,149 127,341.9 Z m 28,0 115.4,197 71.2,-192.9 z m -14,7.5 -117,200.2 H 373.1 Z M 52,186 v 173.2 l 62,-5.7 z m 408,0 -61.9,167.5 61.9,5.7 z M 143,368.6 256,491.7 368.8,368.6 Z m -21,0.3 -54,4.9 c 60.82849,37.77753 75.64761,47.4668 141,90.1 z m 268.2,0 c -30.53934,34.72059 -54.72277,59.75935 -87,95 137.57842,-88.16928 76.08272,-49.94368 140.8,-90.1 z"
       fill="#000000"
       fill-opacity="1"
       id="path16"
       style="display:inline;fill:#000000"
       sodipodi:nodetypes="cccccccccccccccccccccccccccccccccccccccc" />
  </g>
</svg>
